<svg width="33" height="33" viewBox="0 0 33 33" fill="none" xmlns="http://www.w3.org/2000/svg">
<path d="M30.1142 15.9107C20.3877 14.044 19.0596 12.7158 17.1929 2.98927C17.1665 2.85228 17.0933 2.72874 16.9857 2.63989C16.8782 2.55104 16.743 2.50244 16.6035 2.50244C16.464 2.50244 16.3289 2.55104 16.2213 2.63989C16.1137 2.72874 16.0405 2.85228 16.0142 2.98927C14.1479 12.7158 12.8198 14.044 3.09277 15.9107C2.95578 15.937 2.83224 16.0102 2.7434 16.1178C2.65456 16.2254 2.60596 16.3605 2.60596 16.5C2.60596 16.6395 2.65456 16.7747 2.7434 16.8822C2.83224 16.9898 2.95578 17.063 3.09277 17.0894C12.8198 18.9561 14.1479 20.2842 16.0142 30.0108C16.0406 30.1476 16.1139 30.2711 16.2215 30.3598C16.329 30.4485 16.4641 30.4971 16.6035 30.4971C16.7429 30.4971 16.878 30.4485 16.9856 30.3598C17.0931 30.2711 17.1664 30.1476 17.1929 30.0108C19.0596 20.2842 20.3877 18.9561 30.1142 17.0894C30.2512 17.063 30.3748 16.9898 30.4636 16.8822C30.5525 16.7747 30.6011 16.6395 30.6011 16.5C30.6011 16.3605 30.5525 16.2254 30.4636 16.1178C30.3748 16.0102 30.2512 15.937 30.1142 15.9107Z" fill="#E5FE40"/>
</svg>
