<svg width="33" height="33" viewBox="0 0 33 33" fill="none" xmlns="http://www.w3.org/2000/svg">
<path d="M30.1138 15.9107C20.3872 14.044 19.0591 12.7158 17.1924 2.98927C17.166 2.85228 17.0928 2.72874 16.9852 2.63989C16.8777 2.55104 16.7425 2.50244 16.603 2.50244C16.4635 2.50244 16.3284 2.55104 16.2208 2.63989C16.1133 2.72874 16.04 2.85228 16.0137 2.98927C14.1475 12.7158 12.8193 14.044 3.09229 15.9107C2.95529 15.937 2.83175 16.0102 2.74291 16.1178C2.65407 16.2254 2.60547 16.3605 2.60547 16.5C2.60547 16.6395 2.65407 16.7747 2.74291 16.8822C2.83175 16.9898 2.95529 17.063 3.09229 17.0894C12.8193 18.9561 14.1475 20.2842 16.0137 30.0108C16.0401 30.1476 16.1134 30.2711 16.221 30.3598C16.3285 30.4485 16.4636 30.4971 16.603 30.4971C16.7424 30.4971 16.8775 30.4485 16.9851 30.3598C17.0926 30.2711 17.1659 30.1476 17.1924 30.0108C19.0591 20.2842 20.3872 18.9561 30.1138 17.0894C30.2508 17.063 30.3743 16.9898 30.4631 16.8822C30.552 16.7747 30.6006 16.6395 30.6006 16.5C30.6006 16.3605 30.552 16.2254 30.4631 16.1178C30.3743 16.0102 30.2508 15.937 30.1138 15.9107Z" fill="#FF67C7"/>
</svg>
