<svg width="58" height="58" viewBox="0 0 58 58" fill="none" xmlns="http://www.w3.org/2000/svg">
<path d="M27.1243 2.06901C27.7686 0.327772 30.2314 0.327775 30.8757 2.06901L37.3238 19.4946C37.5263 20.0421 37.958 20.4737 38.5054 20.6762L55.931 27.1243C57.6722 27.7686 57.6722 30.2314 55.931 30.8757L38.5054 37.3238C37.958 37.5263 37.5263 37.958 37.3238 38.5054L30.8757 55.931C30.2314 57.6722 27.7686 57.6722 27.1243 55.931L20.6762 38.5054C20.4737 37.958 20.0421 37.5263 19.4946 37.3238L2.06901 30.8757C0.327772 30.2314 0.327775 27.7686 2.06901 27.1243L19.4946 20.6762C20.0421 20.4737 20.4737 20.0421 20.6762 19.4946L27.1243 2.06901Z" fill="#6A35FF"/>
</svg>
