<svg width="56" height="56" viewBox="0 0 56 56" fill="none" xmlns="http://www.w3.org/2000/svg">
<path d="M32.9627 1.6156C34.0317 0.0982436 36.4115 0.729321 36.5885 2.57711L38.3586 21.0556C38.4143 21.6367 38.721 22.1645 39.1983 22.5005L54.3818 33.1895C55.9004 34.2585 55.2692 36.6398 53.4205 36.8159L34.937 38.5768C34.3559 38.6322 33.828 38.9386 33.4919 39.4158L22.8014 54.5899C21.7323 56.1072 19.3526 55.4761 19.1756 53.6284L17.4054 35.1499C17.3498 34.5688 17.043 34.041 16.5657 33.705L1.38225 23.016C-0.136317 21.947 0.494896 19.5656 2.34352 19.3895L20.8271 17.6287C21.4082 17.5733 21.936 17.2668 22.2722 16.7897L32.9627 1.6156Z" fill="#FF67C7"/>
</svg>
